<svg xmlns="http://www.w3.org/2000/svg" fill="none" viewBox="0 0 129 20">
  <path fill="#121629" d="m3 12-.1 5c-.1.7-.2 1.2-.7 1.3h-.7l-.2.2.4.2h5c.3 0 .4 0 .4-.2l-.2-.1-1-.1c-.7-.1-.8-.6-1-1.3V2.6c0-.2 0-.4.2-.5h1c.5 0 1.9-.2 3.1 1a4.9 4.9 0 0 1 1.3 3.6c0 2.1-1.8 3.7-4 3.7-.5 0-.6 0-.6.2s.1.2.2.2h.5c3.3 0 5.7-2.2 5.7-5.4A4 4 0 0 0 11 2.6c-.3-.3-1.4-1.3-4.2-1.3H1.4c-.3 0-.4 0-.4.2l.2.1.8.1c.7.2 1 .5 1 1.3v9Zm12.3 4.2c-.5 1.1-1 2-2 2.1a7 7 0 0 1-.6 0c-.2 0-.3.1-.3.2s.2.2.5.2h4.4c.2 0 .3 0 .3-.2l-.2-.1h-.2c-.4 0-1-.2-1-.7 0-.4.2-1 .4-1.5L18 12l.2-.2h5l.2.1 2 5.7c.2.4 0 .6 0 .6-.1 0-.2 0-.2.2l.7.1h3.6l.4-.1-.2-.1a3 3 0 0 1-.9-.2c-.5-.1-1.2-.5-2-2.5L21.5 1.8c-.3-.7-.4-.8-.5-.8-.2 0-.3.1-.5.9l-5.2 14.3Zm3.2-5.1c-.1 0-.2 0-.1-.2l2-6.2c.1-.3.2-.3.4 0l2.1 6.2v.2h-4.4Zm15.2.9-.1 5c-.1.7-.2 1.2-.7 1.3h-.7l-.2.2.4.2h4.8c.3 0 .4 0 .4-.2l-.2-.1-.9-.1c-.7-.1-.8-.6-.9-1.3V9.8c1.1 1.3 6 6.6 7 7.4 1 .8 1.6 1.3 2.8 1.4h2.8l.5-.1-.3-.1c-.2 0-.8 0-1.4-.3-1.1-.5-1.5-.9-3.5-2.7L37.2 9l5-5c1.1-1 1.6-1.6 2.6-2l1.2-.4.3-.1c0-.1-.1-.2-.4-.2H42c-.2 0-.3 0-.3.2l.2.2c.2 0 .3.2.3.4 0 .4-.6 1-1.2 1.7l-5.4 5.6V3c0-.8.2-1.2.8-1.3h.6l.2-.2c0-.1-.1-.2-.4-.2h-4.7c-.3 0-.4 0-.4.2l.2.1.8.1c.7.2.9.5 1 1.3v9Zm22.6-9.7h2.9c2.2.1 2.8.6 2.8 1.3V4c0 .3.1.4.2.4s.2-.1.2-.3V1.2h-.7l-1.6.2h-8.6l-1.9-.1c-.6 0-.8-.3-1-.3l-.2.4A36.4 36.4 0 0 0 48 4c.1 0 .2 0 .2-.2l.4-.7c.4-.6 1-.7 2.4-.7h3.4V12l-.1 5c-.1.7-.2 1.2-.7 1.3h-.7l-.2.2c0 .1.1.2.4.2h5.1c.2 0 .3 0 .3-.2l-.2-.1-1-.1c-.7-.1-.8-.6-.9-1.3l-.1-5V2.3Zm8.1 7.7c0 4.1 2.7 9 9 9 5.5 0 9.1-4.2 9.1-9.4 0-5.3-3.9-8.6-9-8.6-6.4 0-9 5.3-9 9Zm2.2-.7c0-5 2.9-7.5 6.7-7.5 3.6 0 7 3 7 8.5 0 6.6-4.3 7.8-6.3 7.8-4.2 0-7.4-3.4-7.4-8.8ZM89.8 8V3c0-.8.2-1.2.9-1.3h.8l.1-.2c0-.1 0-.2-.3-.2h-5.1c-.3 0-.4 0-.4.2l.2.1.8.1c.7.2 1 .5 1 1.3v14c-.2.7-.3 1.2-.8 1.3h-.6c-.2 0-.2.1-.2.2s0 .2.3.2H95c1.3 0 1.3 0 1.5-.6.2-.6.3-2 .3-2.3l-.1-.3c-.1 0-.2.1-.2.3 0 .4-.3 1-.6 1.4-.6.6-1.6.7-2.8.7-1.8 0-2.4-.2-2.7-.6-.5-.4-.5-1.9-.5-5.2V8Zm10.6 3.3c0 3.4.9 5 2 6a7 7 0 0 0 4.7 1.7c1.4 0 3.1-.2 4.8-1.7 1.8-1.6 2-4.4 2-6.9V8l.1-5c0-.8.3-1.2.9-1.3h.5l.2-.2c0-.1 0-.2-.3-.2h-4.4c-.3 0-.4 0-.4.2l.2.1.8.1c.8.2 1 .5 1 1.3v7.8c0 2.4-.2 4.4-1.3 5.7-.8 1-2.2 1.6-3.6 1.6-1.3 0-2.3-.2-3.5-1.2-1-1-1.7-2.4-1.7-5.7V3c0-.8.3-1.2.9-1.3h.6l.2-.2-.4-.2h-4.9c-.3 0-.4 0-.4.2l.2.1.8.1c.7.2 1 .5 1 1.3v8.3Zm22.5 7.7a6 6 0 0 0 3.4-1c1.6-1 2-2.8 2-3.8 0-1.8-.7-3.2-3.4-5.4l-.6-.5c-2.2-1.7-2.8-2.5-2.8-3.8 0-1.7 1.2-2.7 2.8-2.7 2.1 0 2.7 1 2.9 1.2l.3 1.2c0 .2 0 .3.2.3l.1-.6.1-2.4c0-.1 0-.2-.2-.2h-.8c-.6-.2-1.3-.3-2.2-.3-2.9 0-4.7 1.7-4.7 4.1 0 1.6.5 3 3 5l1 .9c2 1.6 2.7 2.5 2.7 4.1 0 1.5-1.1 3-3.3 3-1.6 0-3-.6-3.4-2.3l-.1-.8c0-.2 0-.3-.2-.3l-.1.4-.2 2.4c0 .6 0 .7.4.9 1 .4 2 .6 3 .6Z"/>
  <path stroke="#121629" stroke-width=".2" d="m3 12-.1 5c-.1.7-.2 1.2-.7 1.3h-.7l-.2.2.4.2h5c.3 0 .4 0 .4-.2l-.2-.1-1-.1c-.7-.1-.8-.6-1-1.3V2.6c0-.2 0-.4.2-.5h1c.5 0 1.9-.2 3.1 1a4.9 4.9 0 0 1 1.3 3.6c0 2.1-1.8 3.7-4 3.7-.5 0-.6 0-.6.2s.1.2.2.2h.5c3.3 0 5.7-2.2 5.7-5.4A4 4 0 0 0 11 2.6c-.3-.3-1.4-1.3-4.2-1.3H1.4c-.3 0-.4 0-.4.2l.2.1.8.1c.7.2 1 .5 1 1.3v9Zm12.3 4.2c-.5 1.1-1 2-2 2.1a7 7 0 0 1-.6 0c-.2 0-.3.1-.3.2s.2.2.5.2h4.4c.2 0 .3 0 .3-.2l-.2-.1h-.2c-.4 0-1-.2-1-.7 0-.4.2-1 .4-1.5L18 12l.2-.2h5l.2.1 2 5.7c.2.4 0 .6 0 .6-.1 0-.2 0-.2.2l.7.1h3.6l.4-.1-.2-.1a3 3 0 0 1-.9-.2c-.5-.1-1.2-.5-2-2.5L21.5 1.8c-.3-.7-.4-.8-.5-.8-.2 0-.3.1-.5.9l-5.2 14.3Zm3.2-5.1c-.1 0-.2 0-.1-.2l2-6.2c.1-.3.2-.3.4 0l2.1 6.2v.2h-4.4Zm15.2.9-.1 5c-.1.7-.2 1.2-.7 1.3h-.7l-.2.2.4.2h4.8c.3 0 .4 0 .4-.2l-.2-.1-.9-.1c-.7-.1-.8-.6-.9-1.3V9.8c1.1 1.3 6 6.6 7 7.4 1 .8 1.6 1.3 2.8 1.4h2.8l.5-.1-.3-.1c-.2 0-.8 0-1.4-.3-1.1-.5-1.5-.9-3.5-2.7L37.2 9l5-5c1.1-1 1.6-1.6 2.6-2l1.2-.4.3-.1c0-.1-.1-.2-.4-.2H42c-.2 0-.3 0-.3.2l.2.2c.2 0 .3.2.3.4 0 .4-.6 1-1.2 1.7l-5.4 5.6V3c0-.8.2-1.2.8-1.3h.6l.2-.2c0-.1-.1-.2-.4-.2h-4.7c-.3 0-.4 0-.4.2l.2.1.8.1c.7.2.9.5 1 1.3v9Zm22.6-9.7h2.9c2.2.1 2.8.6 2.8 1.3V4c0 .3.1.4.2.4s.2-.1.2-.3V1.2h-.7l-1.6.2h-8.6l-1.9-.1c-.6 0-.8-.3-1-.3l-.2.4A36.4 36.4 0 0 0 48 4c.1 0 .2 0 .2-.2l.4-.7c.4-.6 1-.7 2.4-.7h3.4V12l-.1 5c-.1.7-.2 1.2-.7 1.3h-.7l-.2.2c0 .1.1.2.4.2h5.1c.2 0 .3 0 .3-.2l-.2-.1-1-.1c-.7-.1-.8-.6-.9-1.3l-.1-5V2.3Zm8.1 7.7c0 4.1 2.7 9 9 9 5.5 0 9.1-4.2 9.1-9.4 0-5.3-3.9-8.6-9-8.6-6.4 0-9 5.3-9 9Zm2.2-.7c0-5 2.9-7.5 6.7-7.5 3.6 0 7 3 7 8.5 0 6.6-4.3 7.8-6.3 7.8-4.2 0-7.4-3.4-7.4-8.8ZM89.8 8V3c0-.8.2-1.2.9-1.3h.8l.1-.2c0-.1 0-.2-.3-.2h-5.1c-.3 0-.4 0-.4.2l.2.1.8.1c.7.2 1 .5 1 1.3v14c-.2.7-.3 1.2-.8 1.3h-.6c-.2 0-.2.1-.2.2s0 .2.3.2H95c1.3 0 1.3 0 1.5-.6.2-.6.3-2 .3-2.3l-.1-.3c-.1 0-.2.1-.2.3 0 .4-.3 1-.6 1.4-.6.6-1.6.7-2.8.7-1.8 0-2.4-.2-2.7-.6-.5-.4-.5-1.9-.5-5.2V8Zm10.6 3.3c0 3.4.9 5 2 6a7 7 0 0 0 4.7 1.7c1.4 0 3.1-.2 4.8-1.7 1.8-1.6 2-4.4 2-6.9V8l.1-5c0-.8.3-1.2.9-1.3h.5l.2-.2c0-.1 0-.2-.3-.2h-4.4c-.3 0-.4 0-.4.2l.2.1.8.1c.8.2 1 .5 1 1.3v7.8c0 2.4-.2 4.4-1.3 5.7-.8 1-2.2 1.6-3.6 1.6-1.3 0-2.3-.2-3.5-1.2-1-1-1.7-2.4-1.7-5.7V3c0-.8.3-1.2.9-1.3h.6l.2-.2-.4-.2h-4.9c-.3 0-.4 0-.4.2l.2.1.8.1c.7.2 1 .5 1 1.3v8.3Zm22.5 7.7a6 6 0 0 0 3.4-1c1.6-1 2-2.8 2-3.8 0-1.8-.7-3.2-3.4-5.4l-.6-.5c-2.2-1.7-2.8-2.5-2.8-3.8 0-1.7 1.2-2.7 2.8-2.7 2.1 0 2.7 1 2.9 1.2l.3 1.2c0 .2 0 .3.2.3l.1-.6.1-2.4c0-.1 0-.2-.2-.2h-.8c-.6-.2-1.3-.3-2.2-.3-2.9 0-4.7 1.7-4.7 4.1 0 1.6.5 3 3 5l1 .9c2 1.6 2.7 2.5 2.7 4.1 0 1.5-1.1 3-3.3 3-1.6 0-3-.6-3.4-2.3l-.1-.8c0-.2 0-.3-.2-.3l-.1.4-.2 2.4c0 .6 0 .7.4.9 1 .4 2 .6 3 .6Z"/>
</svg>
